# xmcd CD database file
#
# Track frame offsets:
#	150
#	16017
#	31824
#	42190
#	54674
#	65781
#	87857
#	97554
#	114056
#	127432
#	137708
#	153977
#	163811
#	179928
#	191820
#	205517
#	216472
#	230855
#	245143
#	263534
#
# Disc length: 3636 seconds
#
# Revision: 1
# Processed by: cddbd v1.5.2PL0 Copyright (c) Steve Scherf et al.
# Submitted via: CDex 1.51
#
DISCID=210e3214
DTITLE=鳳飛飛 - 鐳射唱片珍藏系列 Vol.2
DYEAR=1900
DGENRE=Blues
TTITLE0=意難忘
TTITLE1=總有一天等到你
TTITLE2=我愛口哨
TTITLE3=流雲
TTITLE4=多看一眼
TTITLE5=寒星
TTITLE6=再會吧！原野
TTITLE7=夏日假期玫瑰花
TTITLE8=呼喚
TTITLE9=出人頭地
TTITLE10=往事難追憶
TTITLE11=塵夢
TTITLE12=不了緣
TTITLE13=願嫁漢家郎
TTITLE14=默默的相思
TTITLE15=春的夢
TTITLE16=踏夢
TTITLE17=我要為你歌唱
TTITLE18=倆相依
TTITLE19=瘋狂的周未
EXTD=
EXTT0=
EXTT1=
EXTT2=
EXTT3=
EXTT4=
EXTT5=
EXTT6=
EXTT7=
EXTT8=
EXTT9=
EXTT10=
EXTT11=
EXTT12=
EXTT13=
EXTT14=
EXTT15=
EXTT16=
EXTT17=
EXTT18=
EXTT19=
PLAYORDER=
